<?xml version="1.0" encoding="utf-8"?>
<!-- Generator: Adobe Illustrator 19.2.1, SVG Export Plug-In . SVG Version: 6.00 Build 0)  -->
<svg version="1.1" id="Layer_1" xmlns="http://www.w3.org/2000/svg" xmlns:xlink="http://www.w3.org/1999/xlink" x="0px" y="0px"
	 viewBox="0 0 27.2 27.2" style="enable-background:new 0 0 27.2 27.2;" xml:space="preserve">
<style type="text/css">
	.st0{fill:#1D2326;}
	.st1{fill:#FFFFFF;}
</style>
<rect class="st0" width="27.2" height="27.2"/>
<title>FB</title>
<path class="st1" d="M13.6,0C6.1,0,0,6.1,0,13.6s6.1,13.6,13.6,13.6s13.6-6.1,13.6-13.6c0,0,0,0,0,0C27.2,6.1,21.1,0,13.6,0z
	 M17,14.1h-2.2V22h-3.3v-7.9H9.9v-2.8h1.6V9.5c-0.1-1.7,1.1-3.2,2.8-3.3c0.2,0,0.3,0,0.5,0h2.4v2.7h-1.8c-0.4,0-0.7,0.3-0.7,0.6
	c0,0,0,0.1,0,0.1v1.6h2.5L17,14.1z"/>
</svg>
