<svg id="Layer_1" data-name="Layer 1" xmlns="http://www.w3.org/2000/svg" viewBox="0 0 27.18 27.18"><defs><style>.cls-1{fill:#181b2b;}</style></defs><title>ig</title><path class="cls-1" d="M16.25,18.22a2.72,2.72,0,1,0-2.72-2.72A2.72,2.72,0,0,0,16.25,18.22Z" transform="translate(-2.66 -1.91)"/><polygon class="cls-1" points="19.53 10.26 19.53 7.98 19.53 7.64 19.19 7.64 16.91 7.65 16.92 10.27 19.53 10.26"/><path class="cls-1" d="M16.25,1.91A13.59,13.59,0,1,0,29.84,15.5,13.6,13.6,0,0,0,16.25,1.91Zm7.73,12v6.33a3,3,0,0,1-3,3H11.51a3,3,0,0,1-3-3V10.76a3,3,0,0,1,3-3H21a3,3,0,0,1,3,3v3.15Z" transform="translate(-2.66 -1.91)"/><path class="cls-1" d="M20.48,15.5a4.23,4.23,0,1,1-8.14-1.59H10v6.33a1.48,1.48,0,0,0,1.48,1.48H21a1.48,1.48,0,0,0,1.48-1.48V13.91H20.16A4.17,4.17,0,0,1,20.48,15.5Z" transform="translate(-2.66 -1.91)"/></svg>