<?xml version="1.0" encoding="utf-8"?>
<!-- Generator: Adobe Illustrator 19.2.1, SVG Export Plug-In . SVG Version: 6.00 Build 0)  -->
<svg version="1.1" id="Layer_1" xmlns="http://www.w3.org/2000/svg" xmlns:xlink="http://www.w3.org/1999/xlink" x="0px" y="0px"
	 viewBox="0 0 27.2 27.2" style="enable-background:new 0 0 27.2 27.2;" xml:space="preserve">
<style type="text/css">
	.st0{fill:#1D2326;}
	.st1{fill:#FFFFFF;}
</style>
<rect class="st0" width="27.2" height="27.2"/>
<title>IG</title>
<path class="st1" d="M13.6,16.3c1.5,0,2.7-1.2,2.7-2.7c0-1.5-1.2-2.7-2.7-2.7c-1.5,0-2.7,1.2-2.7,2.7C10.8,15.1,12.1,16.3,13.6,16.3
	C13.6,16.3,13.6,16.3,13.6,16.3z"/>
<polygon class="st1" points="19.5,10.3 19.5,8 19.5,7.6 19.2,7.6 16.9,7.7 16.9,10.3 "/>
<path class="st1" d="M13.6,0C6.1,0,0,6.1,0,13.6s6.1,13.6,13.6,13.6s13.6-6.1,13.6-13.6c0,0,0,0,0,0C27.2,6.1,21.1,0,13.6,0z
	 M21.3,12v6.3c0,1.7-1.3,3-3,3H8.8c-1.7,0-3-1.3-3-3V8.9c0-1.7,1.3-3,3-3h9.5c1.7,0,3,1.3,3,3V12z"/>
<path class="st1" d="M17.8,13.6c0,2.3-1.9,4.2-4.2,4.3S9.4,16,9.4,13.6c0-0.6,0.1-1.1,0.3-1.6H7.4v6.3c0,0.8,0.7,1.5,1.5,1.5h9.5
	c0.8,0,1.5-0.6,1.5-1.4c0,0,0,0,0,0V12h-2.3C17.7,12.5,17.8,13,17.8,13.6z"/>
</svg>
