<svg id="Layer_1" data-name="Layer 1" xmlns="http://www.w3.org/2000/svg" viewBox="0 0 51.13 56.36"><defs><style>.cls-1{fill:#323c40;}</style></defs><title>latest news</title><rect class="cls-1" x="42.28" y="29.56" width="3.19" height="1.59" rx="0.79" ry="0.79"/><rect class="cls-1" x="25.01" y="10.69" width="1.59" height="3.19" rx="0.79" ry="0.79"/><rect class="cls-1" x="25.01" y="46.82" width="1.59" height="3.19" rx="0.79" ry="0.79"/><rect class="cls-1" x="6.15" y="29.56" width="3.19" height="1.59" rx="0.79" ry="0.79"/><rect class="cls-1" x="25.01" y="46.82" width="1.59" height="3.19" rx="0.79" ry="0.79"/><rect class="cls-1" x="42.28" y="29.56" width="3.19" height="1.59" rx="0.79" ry="0.79"/><rect class="cls-1" x="25.01" y="10.69" width="1.59" height="3.19" rx="0.79" ry="0.79"/><rect class="cls-1" x="6.15" y="29.56" width="3.19" height="1.59" rx="0.79" ry="0.79"/><path class="cls-1" d="M14,52A25.63,25.63,0,0,1,54.85,21a1.17,1.17,0,0,1-.19,1.69A1.19,1.19,0,0,1,53,22.5a23.24,23.24,0,1,0,4.95,16.68,1.2,1.2,0,0,1,2.39.23A25.62,25.62,0,0,1,14,52Z" transform="translate(-9.19 -6.24)"/><path class="cls-1" d="M45.24,23.52A1.18,1.18,0,0,1,45,22.86a1.2,1.2,0,0,1,1.16-1.24l7.41-.25L53.3,13.93a1.2,1.2,0,1,1,2.39-.09L56,22.48a1.2,1.2,0,0,1-1.15,1.24l-8.61.3A1.2,1.2,0,0,1,45.24,23.52Z" transform="translate(-9.19 -6.24)"/><rect class="cls-1" x="19.9" width="12.21" height="3.81" rx="1.55" ry="1.55"/><path class="cls-1" d="M22.48,42.32l6.19-6.07A4.33,4.33,0,0,0,30.3,33.1a2.42,2.42,0,0,0-2.56-2.47A2.81,2.81,0,0,0,25,33.37L22.37,33a5.22,5.22,0,0,1,5.42-4.6c2.79,0,5.35,1.61,5.35,4.69,0,2.06-1.16,3.49-2.58,4.85l-4.62,4.42h7.23v2.49H22.48V42.32Z" transform="translate(-9.19 -6.24)"/><path class="cls-1" d="M42.22,41.49H34.81v-2.4l6.82-10.31h3.26V39.15h2.24v2.33H44.89v3.33H42.22V41.49Zm0-9.52h0l-4.55,7.18h4.6V32Z" transform="translate(-9.19 -6.24)"/></svg>