<svg id="Layer_1" data-name="Layer 1" xmlns="http://www.w3.org/2000/svg" viewBox="0 0 51.9 51.9"><defs><style>.cls-1{fill:#323c40;}.cls-2{fill:none;stroke:#323c40;stroke-miterlimit:10;stroke-width:2px;}</style></defs><title>more news</title><path class="cls-1" d="M33.7,54.94V47.29h-6A29.63,29.63,0,0,0,33.7,54.94Z" transform="translate(-9.04 -11.01)"/><path class="cls-1" d="M33.69,38.05H25.14a21.13,21.13,0,0,0,1.65,6.77h6.91V38.05Z" transform="translate(-9.04 -11.01)"/><path class="cls-1" d="M19.48,47.29a18.48,18.48,0,0,0,11,7.69,30.37,30.37,0,0,1-5.38-7.69h-5.6Z" transform="translate(-9.04 -11.01)"/><path class="cls-1" d="M25.12,35.74H33.7V29H26.6A20.54,20.54,0,0,0,25.12,35.74Z" transform="translate(-9.04 -11.01)"/><path class="cls-1" d="M36.29,47.29v7.66a29.63,29.63,0,0,0,6-7.66h-6Z" transform="translate(-9.04 -11.01)"/><path class="cls-1" d="M27.69,26.65h6V19A29.63,29.63,0,0,0,27.69,26.65Z" transform="translate(-9.04 -11.01)"/><path class="cls-1" d="M45.7,44.83h6.12a18.15,18.15,0,0,0,1.75-6.77h-6.4A23.05,23.05,0,0,1,45.7,44.83Z" transform="translate(-9.04 -11.01)"/><path class="cls-1" d="M39.53,55a18.48,18.48,0,0,0,11-7.69h-5.6A30.37,30.37,0,0,1,39.53,55Z" transform="translate(-9.04 -11.01)"/><path class="cls-1" d="M43.39,29h-7.1v6.77h8.58A20.54,20.54,0,0,0,43.39,29Z" transform="translate(-9.04 -11.01)"/><path class="cls-1" d="M36.29,19v7.66h6A29.63,29.63,0,0,0,36.29,19Z" transform="translate(-9.04 -11.01)"/><path class="cls-1" d="M50.51,26.64a18.48,18.48,0,0,0-11-7.69,30.37,30.37,0,0,1,5.38,7.69h5.6Z" transform="translate(-9.04 -11.01)"/><path class="cls-1" d="M22.82,38.05h-6.4a18.15,18.15,0,0,0,1.75,6.77h6.12A23.05,23.05,0,0,1,22.82,38.05Z" transform="translate(-9.04 -11.01)"/><path class="cls-1" d="M24.12,29h-6a18.15,18.15,0,0,0-1.75,6.77H22.8A23,23,0,0,1,24.12,29Z" transform="translate(-9.04 -11.01)"/><path class="cls-1" d="M30.46,19a18.48,18.48,0,0,0-11,7.69h5.6A30.37,30.37,0,0,1,30.46,19Z" transform="translate(-9.04 -11.01)"/><path class="cls-1" d="M43.2,44.83a21.13,21.13,0,0,0,1.65-6.77H36.3v6.77H43.2Z" transform="translate(-9.04 -11.01)"/><path class="cls-1" d="M45.87,29a23,23,0,0,1,1.32,6.77h6.38A18.15,18.15,0,0,0,51.82,29h-6Z" transform="translate(-9.04 -11.01)"/><circle class="cls-2" cx="25.95" cy="25.95" r="24.95"/></svg>