<svg id="Layer_1" data-name="Layer 1" xmlns="http://www.w3.org/2000/svg" viewBox="0 0 59.5 59.49"><title>plus</title><path d="M48.67,35.34a1.75,1.75,0,0,1-1.75,1.75H35.75V48.26a1.75,1.75,0,0,1-3.5,0V37.09H21.08a1.75,1.75,0,0,1,0-3.5H32.25V22.42a1.75,1.75,0,0,1,3.5,0V33.59H46.92A1.75,1.75,0,0,1,48.67,35.34Zm15.08,0A29.76,29.76,0,0,1,13,56.38,29.75,29.75,0,1,1,55,14.3,29.55,29.55,0,0,1,63.75,35.34Zm-3.5,0A26.25,26.25,0,0,0,15.44,16.78,26.25,26.25,0,0,0,52.56,53.9,26.08,26.08,0,0,0,60.25,35.34Z" transform="translate(-4.25 -5.59)"/></svg>