<?xml version="1.0" encoding="utf-8"?>
<!-- Generator: Adobe Illustrator 20.0.0, SVG Export Plug-In . SVG Version: 6.00 Build 0)  -->
<svg version="1.1" id="Layer_1" xmlns="http://www.w3.org/2000/svg" xmlns:xlink="http://www.w3.org/1999/xlink" x="0px" y="0px"
	 viewBox="0 0 52.7 52.7" style="enable-background:new 0 0 52.7 52.7;" xml:space="preserve">
<style type="text/css">
	.st0{fill:#323C40;}
</style>
<title>projects</title>
<rect x="25.4" y="6.6" class="st0" width="2" height="3.9"/>
<path class="st0" d="M35.7,35.8h-2.6L30,22.5c2.2-2,2.4-5.4,0.4-7.7s-5.4-2.4-7.7-0.4s-2.4,5.4-0.4,7.7c0.1,0.1,0.2,0.2,0.4,0.4
	l-3.1,13.3H17v2h2.2l-1.2,5v3.3h1.2l2-8.4h4.2v2h2v-2h4.2l2,8.4h1.2v-3.3l-1.2-5h2.2L35.7,35.8L35.7,35.8z M26.4,15
	c1.9,0,3.5,1.5,3.5,3.5c0,1.9-1.5,3.5-3.5,3.5c-1.9,0-3.5-1.5-3.5-3.5S24.5,15,26.4,15L26.4,15z M27.4,35.8v-2h-2v2h-3.7l2.8-12.2
	c1.2,0.5,2.5,0.5,3.8,0l2.8,12.2H27.4z"/>
<g>
	<path class="st0" d="M26.4,1.5V2c6.7,0,12.8,2.7,17.2,7.1c4.4,4.4,7.1,10.5,7.1,17.2c0,6.7-2.7,12.8-7.1,17.2
		c-4.4,4.4-10.5,7.1-17.2,7.1c-6.7,0-12.8-2.7-17.2-7.1C4.7,39.2,2,33.1,2,26.4c0-6.7,2.7-12.8,7.1-17.2C13.5,4.7,19.6,2,26.4,2V1.5
		V1C12.4,1,1,12.4,1,26.4c0,14,11.4,25.4,25.4,25.4c14,0,25.4-11.4,25.4-25.4C51.7,12.4,40.4,1,26.4,1V1.5z"/>
</g>
</svg>
