<?xml version="1.0" encoding="utf-8"?>
<!-- Generator: Adobe Illustrator 19.2.1, SVG Export Plug-In . SVG Version: 6.00 Build 0)  -->
<svg version="1.1" id="Layer_1" xmlns="http://www.w3.org/2000/svg" xmlns:xlink="http://www.w3.org/1999/xlink" x="0px" y="0px"
	 viewBox="0 0 27.2 27.2" style="enable-background:new 0 0 27.2 27.2;" xml:space="preserve">
<style type="text/css">
	.st0{fill:#1D2326;}
	.st1{fill:#FFFFFF;}
</style>
<rect class="st0" width="27.2" height="27.2"/>
<title>TWT</title>
<path class="st1" d="M13.6,0C6.1,0,0,6.1,0,13.6s6.1,13.6,13.6,13.6s13.6-6.1,13.6-13.6c0,0,0,0,0,0C27.2,6.1,21.1,0,13.6,0z
	 M19.7,10.5c0,0.1,0,0.3,0,0.4c0,4.9-4,8.9-8.9,8.9c-1.7,0-3.4-0.5-4.8-1.4c1.7,0.2,3.3-0.3,4.6-1.3c-1.3,0-2.5-0.9-2.9-2.2
	c0.5,0.1,0.9,0.1,1.4,0c-1.5-0.3-2.5-1.6-2.5-3.1l0,0C7,12,7.5,12.2,8,12.2C6.6,11.3,6.2,9.4,7,8c1.6,2,3.9,3.1,6.4,3.3
	c-0.5-1.7,0.5-3.4,2.1-3.9c1.2-0.4,2.5,0,3.3,1c0.7-0.1,1.4-0.4,2-0.8c-0.2,0.7-0.7,1.3-1.4,1.7c0.6-0.1,1.2-0.2,1.8-0.5
	C20.8,9.5,20.3,10,19.7,10.5z"/>
</svg>
