<svg id="Layer_1" data-name="Layer 1" xmlns="http://www.w3.org/2000/svg" viewBox="0 0 52.71 52.71"><defs><style>.cls-1{fill:none;stroke:#323c40;stroke-miterlimit:10;stroke-width:3px;}.cls-2{fill:#323c40;}</style></defs><title>twitter feed</title><circle class="cls-1" cx="26.36" cy="26.36" r="24.86"/><path class="cls-2" d="M25.94,34.51l0.22-.32V33.8a4.55,4.55,0,0,1-1.3-.24A5.35,5.35,0,0,0,25.94,34.51Z" transform="translate(-8.39 -10.23)"/><path class="cls-2" d="M44.65,31.55l0.23,0.31L45,31.73c0-.07,0-0.14,0-0.2Z" transform="translate(-8.39 -10.23)"/><path class="cls-2" d="M27.89,38.49l-0.1-.37a4.59,4.59,0,0,1-1.21.16c-0.14,0-.28,0-0.41,0a5.32,5.32,0,0,0,1.65.63Z" transform="translate(-8.39 -10.23)"/><path class="cls-2" d="M30.29,42L30,41.72a9.64,9.64,0,0,1-.81.56,5.34,5.34,0,0,0,1,.13V42Z" transform="translate(-8.39 -10.23)"/><path class="cls-2" d="M34.85,32.74l0-.39-0.49-.05a5.22,5.22,0,0,0,.09.53Z" transform="translate(-8.39 -10.23)"/><path class="cls-2" d="M44.28,29.76l0.2,0.33a5.37,5.37,0,0,0,1.2-1,9.62,9.62,0,0,1-1.44.29Z" transform="translate(-8.39 -10.23)"/><path class="cls-2" d="M43.31,28.22L43.59,28l-0.17-.16-0.19,0Z" transform="translate(-8.39 -10.23)"/><path class="cls-2" d="M22.94,44.08l0,0.39a10.26,10.26,0,0,0,1.23.07l0.4,0a13.84,13.84,0,0,1-1.38-.77Z" transform="translate(-8.39 -10.23)"/><path class="cls-2" d="M46.81,28.76a9.69,9.69,0,0,1-.81,1,10.25,10.25,0,0,0,1.29-.47L47.13,29Z" transform="translate(-8.39 -10.23)"/><path class="cls-2" d="M25.65,38.58L25.58,39a5.52,5.52,0,0,0,.68.08A4.53,4.53,0,0,1,26,38.46Z" transform="translate(-8.39 -10.23)"/><path class="cls-2" d="M24.3,33.57H23.91l-0.19.34a5.33,5.33,0,0,0,.63.29,4.55,4.55,0,0,1-.05-0.57V33.57Z" transform="translate(-8.39 -10.23)"/><path class="cls-2" d="M24.32,27.8c0.12,0.15.26,0.29,0.39,0.44A4.57,4.57,0,0,1,25,27.75l-0.34-.2Z" transform="translate(-8.39 -10.23)"/><path class="cls-2" d="M46.46,27l-0.37-.12a4.52,4.52,0,0,1-.47,1,10.35,10.35,0,0,0,1-.53Z" transform="translate(-8.39 -10.23)"/><path class="cls-2" d="M47,28.62a9.47,9.47,0,0,1-1.3.46,5.37,5.37,0,0,1-1.2,1l-0.2-.33,0-.39a9.62,9.62,0,0,0,1.44-.29,5.32,5.32,0,0,0,1.16-2l0.31-1-0.88.52a9.54,9.54,0,0,1-2.84,1.11L43.59,28l-0.28.27-0.08-.38,0.19,0a5.35,5.35,0,0,0-9.09,3.82,5.46,5.46,0,0,0,0,.69l0.49,0.05,0,0.39-0.38.09a5.22,5.22,0,0,1-.09-0.53,13.7,13.7,0,0,1-9.46-5l-0.35-.43-0.28.48a5.34,5.34,0,0,0,.59,6.2,4.55,4.55,0,0,0,1.3.24v0.39l-0.22.32a5.35,5.35,0,0,1-1.07-.95,4.55,4.55,0,0,1-.78-0.33l-0.57-.31v0.71h0a5.35,5.35,0,0,0,2.65,4.61c0.14,0,.27,0,0.41,0a4.59,4.59,0,0,0,1.21-.16l0.1,0.37-0.08.38a5.32,5.32,0,0,1-1.65-.63c-0.15,0-.3,0-0.45,0l-0.64-.12,0.2,0.62a5.35,5.35,0,0,0,4,3.58A9.64,9.64,0,0,0,30,41.72L30.29,42v0.39a5.34,5.34,0,0,1-1-.13A9.6,9.6,0,0,1,23,43.69l-1.68-.2,1.43,0.91a14.43,14.43,0,0,0,7.82,2.29A14,14,0,0,0,41.32,42a15.06,15.06,0,0,0,3.73-9.78c0-.15,0-0.31,0-0.46l-0.17.13-0.23-.31,0.39,0c0,0.07,0,.14,0,0.2a10.46,10.46,0,0,0,2.41-2.54l0.74-1.11Zm-0.88-1.73L46.46,27l0.2,0.33a10.35,10.35,0,0,1-1,.53A4.52,4.52,0,0,0,46.09,26.89ZM24.71,28.24c-0.13-.15-0.27-0.28-0.39-0.44l0.3-.25L25,27.75A4.57,4.57,0,0,0,24.71,28.24Zm-1,5.66,0.19-.34H24.3v0.06a4.55,4.55,0,0,0,.05.57A5.33,5.33,0,0,1,23.72,33.9ZM25.58,39l0.07-.38L26,38.46a4.53,4.53,0,0,0,.24.58A5.52,5.52,0,0,1,25.58,39Zm-1.46,5.58a10.26,10.26,0,0,1-1.23-.07l0-.39,0.21-.33a13.84,13.84,0,0,0,1.38.77ZM46,29.8a9.69,9.69,0,0,0,.81-1L47.13,29l0.16,0.35A10.25,10.25,0,0,1,46,29.8Z" transform="translate(-8.39 -10.23)"/></svg>