<svg id="Layer_1" data-name="Layer 1" xmlns="http://www.w3.org/2000/svg" viewBox="0 0 27.18 27.18"><defs><style>.cls-1{fill:#181b2b;}</style></defs><title>twt</title><path class="cls-1" d="M15.78,2.25A13.59,13.59,0,1,0,29.37,15.84,13.6,13.6,0,0,0,15.78,2.25Zm6.06,10.48c0,0.13,0,.27,0,0.41A8.9,8.9,0,0,1,8.16,20.63a6.32,6.32,0,0,0,4.63-1.29,3.13,3.13,0,0,1-2.92-2.17,3.14,3.14,0,0,0,1.41-.05A3.13,3.13,0,0,1,8.77,14v0a3.11,3.11,0,0,0,1.42.39,3.13,3.13,0,0,1-1-4.18,8.88,8.88,0,0,0,6.45,3.27A3.13,3.13,0,0,1,21,10.63a6.24,6.24,0,0,0,2-.76A3.14,3.14,0,0,1,21.6,11.6a6.22,6.22,0,0,0,1.8-.49A6.29,6.29,0,0,1,21.84,12.73Z" transform="translate(-2.19 -2.25)"/></svg>