<svg id="Layer_1" data-name="Layer 1" xmlns="http://www.w3.org/2000/svg" viewBox="0 0 52.71 52.71"><defs><style>.cls-1{fill:#323c40;}.cls-2{fill:none;stroke:#323c40;stroke-miterlimit:10;stroke-width:3px;}</style></defs><title>projects</title><rect class="cls-1" x="25.37" y="6.64" width="1.97" height="3.94"/><path class="cls-1" d="M44.36,46H41.74L38.64,32.7a5.42,5.42,0,1,0-7.3,0L28.25,46H25.63v2h2.16l-1.18,5v3.35h1.24l2-8.38H34v2h2v-2h4.19l2,8.38h1.24V53l-1.18-5h2.16V46ZM35,25.25a3.45,3.45,0,1,1-3.45,3.45A3.45,3.45,0,0,1,35,25.25ZM36,46V44H34v2H30.28l2.84-12.17a5.32,5.32,0,0,0,3.75,0L39.71,46H36Z" transform="translate(-8.64 -10.23)"/><circle class="cls-2" cx="26.36" cy="26.36" r="24.86"/></svg>