<svg id="Layer_1" data-name="Layer 1" xmlns="http://www.w3.org/2000/svg" viewBox="0 0 52.71 52.71"><defs><style>.cls-1{fill:none;stroke:#323c40;stroke-miterlimit:10;stroke-width:3px;}.cls-2{fill:#323c40;}</style></defs><title>publications</title><circle class="cls-1" cx="26.36" cy="26.36" r="24.86"/><path class="cls-2" d="M49,51.06a1.13,1.13,0,0,1-1.21.82L28.56,54a2.59,2.59,0,0,1-1.42-.07,1.63,1.63,0,0,1,1.18-.42l19.27-2.91A1.17,1.17,0,0,1,49,51.06Z" transform="translate(-8.64 -10.61)"/><path class="cls-2" d="M26.46,53.45a0.66,0.66,0,0,1-.65-0.57L22,23.91a0.66,0.66,0,0,1,.55-0.74c0.06,0,5.88-.91,11.09-1.89,4.37-.82,8.9-1.88,8.95-1.9a0.66,0.66,0,0,1,.8.51l5.67,28.63a0.66,0.66,0,0,1-.48.77c-0.05,0-5.33,1.36-9.47,2.13-6.23,1.16-12.5,2-12.57,2H26.46ZM23.4,24.38L27,52c1.77-.25,6.82-1,11.85-1.91,3.28-.61,7.28-1.58,8.78-2L42.24,20.83c-1.43.33-4.93,1.11-8.34,1.75C29.68,23.37,25.06,24.12,23.4,24.38Z" transform="translate(-8.64 -10.61)"/><path class="cls-2" d="M26,30.22a0.34,0.34,0,0,1,0-.68c0.12,0,12.33-1.58,15.42-3.35a0.34,0.34,0,1,1,.34.59C38.51,28.62,26.55,30.15,26,30.22h0Z" transform="translate(-8.64 -10.61)"/><path class="cls-2" d="M26.47,33.42a0.34,0.34,0,0,1,0-.68c0.68-.09,6.79-0.89,11.32-2a0.34,0.34,0,1,1,.16.66c-4.57,1.1-10.71,1.91-11.4,2h0Z" transform="translate(-8.64 -10.61)"/></svg>